<svg width="29" height="22" viewBox="0 0 29 22" fill="none" xmlns="http://www.w3.org/2000/svg">
<mask id="mask0_3_417" style="mask-type:luminance" maskUnits="userSpaceOnUse" x="0" y="0" width="29" height="22">
<path d="M0 0H28.25V21.1875H0V0Z" fill="white"/>
</mask>
<g mask="url(#mask0_3_417)">
<path fill-rule="evenodd" clip-rule="evenodd" d="M0 0V21.1875H28.25V0H0Z" fill="#F7FCFF"/>
<mask id="mask1_3_417" style="mask-type:luminance" maskUnits="userSpaceOnUse" x="0" y="0" width="29" height="22">
<path fill-rule="evenodd" clip-rule="evenodd" d="M0 0V21.1875H28.25V0H0Z" fill="white"/>
</mask>
<g mask="url(#mask1_3_417)">
<path fill-rule="evenodd" clip-rule="evenodd" d="M0 0V7.0625H28.25V0H0Z" fill="#FF8C1A"/>
<path fill-rule="evenodd" clip-rule="evenodd" d="M0 14.125V21.1875H28.25V14.125H0Z" fill="#5EAA22"/>
<path fill-rule="evenodd" clip-rule="evenodd" d="M10.5938 10.5938C10.5938 12.544 12.1748 14.125 14.125 14.125C16.0752 14.125 17.6562 12.544 17.6562 10.5938C17.6562 8.64349 16.0752 7.0625 14.125 7.0625C12.1748 7.0625 10.5938 8.64349 10.5938 10.5938ZM16.7734 10.5938C16.7734 12.0565 15.5877 13.2422 14.125 13.2422C12.6623 13.2422 11.4766 12.0565 11.4766 10.5938C11.4766 9.13102 12.6623 7.94531 14.125 7.94531C15.5877 7.94531 16.7734 9.13102 16.7734 10.5938Z" fill="#3D58DB"/>
<path fill-rule="evenodd" clip-rule="evenodd" d="M14.1201 11.3536L13.6162 14.1085L13.9088 11.3232L12.6491 13.8245L13.7146 11.2345L11.8013 13.2796L13.5532 11.0947L11.1412 12.5179L13.4378 10.9151L10.7226 11.6011L13.3776 10.7103L10.5791 10.6035L13.3776 10.4967L10.7226 9.60588L13.4378 10.2919L11.1412 8.68909L13.5532 10.1123L11.8013 7.92739L13.7146 9.97251L12.6491 7.38249L13.9088 9.88379L13.6162 7.09854L14.1201 9.85342L14.6241 7.09854L14.3314 9.88379L15.5911 7.38249L14.5256 9.97251L16.4389 7.92739L14.687 10.1123L17.099 8.68909L14.8024 10.2919L17.5177 9.60588L14.8626 10.4967L17.6611 10.6035L14.8626 10.7103L17.5177 11.6011L14.8024 10.9151L17.099 12.5179L14.687 11.0947L16.4389 13.2796L14.5256 11.2345L15.5911 13.8245L14.3314 11.3232L14.6241 14.1085L14.1201 11.3536Z" fill="#3D58DB"/>
</g>
</g>
</svg>
