<svg width="29" height="22" viewBox="0 0 29 22" fill="none" xmlns="http://www.w3.org/2000/svg">
<mask id="mask0_3_401" style="mask-type:luminance" maskUnits="userSpaceOnUse" x="0" y="0" width="29" height="22">
<path d="M0 0H28.25V21.1875H0V0Z" fill="white"/>
</mask>
<g mask="url(#mask0_3_401)">
<path fill-rule="evenodd" clip-rule="evenodd" d="M19.4219 0H28.25V21.1875H19.4219V0Z" fill="#D9071E"/>
<path fill-rule="evenodd" clip-rule="evenodd" d="M0 0H10.5938V21.1875H0V0Z" fill="#006923"/>
<path fill-rule="evenodd" clip-rule="evenodd" d="M8.82812 0H19.4219V21.1875H8.82812V0Z" fill="white"/>
<path fill-rule="evenodd" clip-rule="evenodd" d="M11.5255 7.36419C11.4317 7.76601 11.4927 7.86086 11.9464 7.86086C11.97 7.86086 12.0074 7.92745 12.048 7.99989C12.0926 8.07936 12.1413 8.16587 12.1798 8.17923C12.1633 8.20115 11.9908 8.51291 11.9899 9.06207C11.9899 9.17516 12.0424 9.36143 12.093 9.54047C12.1479 9.73513 12.2004 9.92105 12.1798 9.99459C12.1464 10.1142 11.9964 9.98382 11.8802 9.88282C11.8137 9.82509 11.7584 9.77689 11.7421 9.79057C11.6591 9.8604 11.6162 9.30758 11.5904 8.97361C11.5788 8.8249 11.5707 8.71957 11.5638 8.73187C11.5349 8.66799 11.523 8.58952 11.5114 8.51199C11.4859 8.34339 11.4612 8.17923 11.2622 8.17923H10.7501V8.55628C10.7501 8.55628 11.0465 8.55628 11.0465 9.2577C11.0513 9.36258 11.1897 10.2849 11.5255 10.2897C11.3287 10.2941 11.3301 10.3334 11.331 10.3565L11.3311 10.3605C11.3311 10.9248 11.8027 10.9858 12.2435 10.8266C12.5083 10.7308 12.7896 10.5439 13.0001 10.3135C13.2973 9.98841 13.334 9.56748 12.9438 9.33672C12.8049 9.25453 12.6542 9.22283 12.4434 9.21109C12.485 9.08732 12.4456 8.97688 12.4148 8.89063C12.3891 8.81855 12.3694 8.76346 12.4083 8.73187C12.8502 8.37343 12.8896 8.04306 12.5681 7.74672C12.5263 7.70828 12.486 7.65616 12.4444 7.60251C12.3661 7.50137 12.2836 7.39481 12.1798 7.36419C12.2278 7.2675 12.2923 7.15035 12.3733 7.0154L11.6165 6.56096C11.4793 6.78949 11.5022 6.96824 11.5222 7.12401C11.5332 7.20951 11.5432 7.28809 11.5255 7.36419ZM12.3485 9.71791L12.3349 9.73257L12.3441 9.72418C12.3456 9.72162 12.347 9.7195 12.3485 9.71791ZM11.9481 9.99459C11.9478 9.99468 11.9484 9.9945 11.9493 9.99432L11.958 9.99265C11.9545 9.99318 11.9512 9.99388 11.9493 9.99432L11.9481 9.99459ZM11.5638 10.2893C11.5535 10.2893 11.5436 10.2894 11.5341 10.2895L11.5504 10.2892L11.5638 10.2893Z" fill="#A8AC71"/>
<path fill-rule="evenodd" clip-rule="evenodd" d="M12.6984 6.98609C12.6984 6.98609 12.0921 7.45633 12.2055 7.95766C12.3189 8.45899 13.5138 7.95766 13.3694 7.47188C13.2249 6.98609 12.6984 6.98609 12.6984 6.98609Z" fill="#FCCA3D"/>
<path fill-rule="evenodd" clip-rule="evenodd" d="M17.0087 10.9494C17.0087 10.9494 17.8253 8.52934 16.5273 7.2766C15.2292 6.02385 13.7292 6.10768 13.7292 6.10768C13.7292 6.10768 13.2972 6.42862 13.7292 6.67339C14.1612 6.91816 13.9802 7.15284 13.9802 7.15284C13.9802 7.15284 13.2567 6.41831 12.7766 6.84745C12.2963 7.2766 13.2249 7.21129 13.1265 7.53441C13.0283 7.85754 12.6118 9.29214 13.2203 10.0165C13.8288 10.7407 12.645 10.5836 12.8858 10.5836C13.1265 10.5836 13.9802 10.7521 13.9802 10.5836C13.9802 10.415 14.2769 11.239 14.5309 11.239C14.7849 11.239 14.9809 10.9494 14.9809 10.9494C14.9809 10.9494 15.337 11.239 15.5539 11.239C15.7708 11.239 16.5273 11.0496 16.5273 11.0496L15.0976 9.84487C15.0976 9.84487 15.1837 9.31359 14.9809 9.19856C14.7781 9.08353 16.6068 10.2177 16.7501 10.5836C16.8933 10.9494 17.0087 10.9494 17.0087 10.9494Z" fill="#8F4620"/>
<path d="M9.76953 10.3524C9.76953 10.3524 9.90213 9.92988 10.044 9.90057C10.167 9.87514 10.4255 10.103 10.4255 10.103C10.8848 12.6542 11.9953 13.6507 13.838 13.6507C15.7023 13.6507 16.8322 12.8935 17.4916 10.5406C17.4916 10.5406 17.8421 10.1826 17.9658 10.2224C18.1005 10.2657 18.2692 10.7393 18.2692 10.7393C17.5128 13.4386 16.0835 14.6405 13.838 14.6405C11.5707 14.6405 10.2969 13.2817 9.76953 10.3524Z" fill="#9FAB2F"/>
<path fill-rule="evenodd" clip-rule="evenodd" d="M11.7715 12.0561C11.7715 12.0561 14.4238 12.6187 15.4706 12.6187C16.5176 12.6187 14.5522 13.4731 13.7853 13.4731C13.4498 13.4731 13.0455 13.2698 12.5723 12.8631C12.4874 12.7902 12.5696 12.627 12.3112 12.6248C11.951 12.6217 11.5034 12.5373 11.5462 12.4857C11.5869 12.4367 12.1111 12.422 12.0606 12.3684C11.9773 12.2801 11.7715 12.0561 11.7715 12.0561Z" fill="#2FC2DC"/>
<path d="M14.5664 12.4477H13.095C13.0138 12.4477 12.9479 12.5135 12.9479 12.5948V13.2464C12.9479 13.3277 13.0138 13.3935 13.095 13.3935H14.5664C14.6476 13.3935 14.7135 13.3277 14.7135 13.2464V12.5948C14.7135 12.5135 14.6476 12.4477 14.5664 12.4477Z" fill="#F9AA51"/>
<path d="M10.7487 10.7137C10.7487 10.7137 10.7487 10.3827 10.9729 10.2067C11.2299 10.0051 11.4713 10.2067 11.4713 10.2067C12.412 11.5474 13.8186 11.9884 15.7858 11.5281C15.7858 11.5281 16.374 11.7203 16.4036 11.8466C16.441 12.0069 15.9869 12.3877 15.9869 12.3877C13.6872 12.9258 11.9096 12.3684 10.7487 10.7137Z" fill="#259485"/>
<path fill-rule="evenodd" clip-rule="evenodd" d="M14.647 10.9029C14.647 10.9029 13.5756 11.4669 13.9328 11.4669C14.2899 11.4669 15.6876 11.7489 15.4156 11.4669C15.1436 11.185 14.647 10.9029 14.647 10.9029Z" fill="#FCCA3D"/>
<path fill-rule="evenodd" clip-rule="evenodd" d="M13.3801 10.2302C13.3801 10.2302 13.1766 9.64217 12.7529 9.64217C12.3292 9.64217 12.4489 10.1245 12.2451 10.1245C12.0413 10.1245 12.4349 10.464 12.6103 10.464C12.7857 10.464 13.3801 10.2302 13.3801 10.2302Z" fill="#FCCA3D"/>
</g>
</svg>
