<svg width="29" height="22" viewBox="0 0 29 22" fill="none" xmlns="http://www.w3.org/2000/svg">
<g filter="url(#filter0_d_2_36)">
<path fill-rule="evenodd" clip-rule="evenodd" d="M0 0V21.1874H28.2499V0H0Z" fill="#2E42A5"/>
<mask id="mask0_2_36" style="mask-type:luminance" maskUnits="userSpaceOnUse" x="0" y="0" width="29" height="22">
<path fill-rule="evenodd" clip-rule="evenodd" d="M0 0V21.1874H28.2499V0H0Z" fill="white"/>
</mask>
<g mask="url(#mask0_2_36)">
<path d="M0 0H15.8906V12.3593H0V0Z" fill="#2B409A"/>
<mask id="mask1_2_36" style="mask-type:luminance" maskUnits="userSpaceOnUse" x="0" y="0" width="16" height="13">
<path d="M0 0H15.8906V12.3593H0V0Z" fill="white"/>
</mask>
<g mask="url(#mask1_2_36)">
<path d="M-1.7694 11.4762L1.72736 13.0099L15.9699 1.66732L17.8144 -0.611677L14.075 -1.12425L8.26587 3.76359L3.59008 7.05684L-1.7694 11.4762Z" fill="#F7FCFF"/>
<path d="M-1.29069 12.5509L0.490754 13.4409L17.152 -0.823318H14.6507L-1.29069 12.5509Z" fill="#F50100"/>
<path d="M17.66 11.4762L14.1632 13.0099L-0.0793469 1.66732L-1.92381 -0.611677L1.81547 -1.12425L7.62466 3.76359L12.3004 7.05684L17.66 11.4762Z" fill="#F7FCFF"/>
<path d="M17.5406 12.2475L15.7592 13.1375L8.66467 7.03026L6.56129 6.34792L-2.10126 -0.60379H0.400087L9.0578 6.18291L11.3574 7.00112L17.5406 12.2475Z" fill="#F50100"/>
<path fill-rule="evenodd" clip-rule="evenodd" d="M8.81441 0H7.04879V5.29685H0V7.06247H7.04879V12.3593H8.81441V7.06247H15.8906V5.29685H8.81441V0Z" fill="#F50100"/>
<mask id="mask2_2_36" style="mask-type:luminance" maskUnits="userSpaceOnUse" x="-2" y="-2" width="20" height="17">
<path d="M-1.76563 -1.76562H17.6562V14.1249H-1.76563V-1.76562Z" fill="white"/>
<path fill-rule="evenodd" clip-rule="evenodd" d="M8.8144 0H7.04879V5.29685H-7.62939e-06V7.06247H7.04879V12.3593H8.8144V7.06247H15.8905V5.29685H8.8144V0Z" fill="black"/>
</mask>
<g mask="url(#mask2_2_36)">
<path d="M7.04878 1.90735e-06V-1.32421H5.72457V1.90735e-06H7.04878ZM8.8144 1.90735e-06H10.1386V-1.32421H8.8144V1.90735e-06ZM7.04878 5.29685V6.62107H8.37299V5.29685H7.04878ZM-1.33514e-05 5.29685V3.97264H-1.32423V5.29685H-1.33514e-05ZM-1.33514e-05 7.06247H-1.32423V8.38668H-1.33514e-05V7.06247ZM7.04878 7.06247H8.37299V5.73826H7.04878V7.06247ZM7.04878 12.3593H5.72457V13.6835H7.04878V12.3593ZM8.8144 12.3593V13.6835H10.1386V12.3593H8.8144ZM8.8144 7.06247V5.73826H7.49019V7.06247H8.8144ZM15.8905 7.06247V8.38668H17.2148V7.06247H15.8905ZM15.8905 5.29685H17.2148V3.97264H15.8905V5.29685ZM8.8144 5.29685H7.49019V6.62107H8.8144V5.29685ZM7.04878 1.32421H8.8144V-1.32421H7.04878V1.32421ZM8.37299 5.29685V1.90735e-06H5.72457V5.29685H8.37299ZM-1.33514e-05 6.62107H7.04878V3.97264H-1.33514e-05V6.62107ZM1.3242 7.06247V5.29685H-1.32423V7.06247H1.3242ZM7.04878 5.73826H-1.33514e-05V8.38668H7.04878V5.73826ZM8.37299 12.3593V7.06247H5.72457V12.3593H8.37299ZM8.8144 11.0351H7.04878V13.6835H8.8144V11.0351ZM7.49019 7.06247V12.3593H10.1386V7.06247H7.49019ZM15.8905 5.73826H8.8144V8.38668H15.8905V5.73826ZM14.5663 5.29685V7.06247H17.2148V5.29685H14.5663ZM8.8144 6.62107H15.8905V3.97264H8.8144V6.62107ZM7.49019 1.90735e-06V5.29685H10.1386V1.90735e-06H7.49019Z" fill="#F7FCFF"/>
</g>
</g>
<path fill-rule="evenodd" clip-rule="evenodd" d="M21.2757 6.59518L21.0464 7.93177L22.2468 7.30071L23.4471 7.93177L23.2179 6.59518L24.189 5.6486L22.8469 5.45359L22.2468 4.23753L21.6467 5.45359L20.3046 5.6486L21.2757 6.59518ZM17.7445 11.5389L17.5152 12.8755L18.7156 12.2445L19.9159 12.8755L19.6866 11.5389L20.6577 10.5923L19.3157 10.3974L18.7156 9.1813L18.1154 10.3974L16.7734 10.5923L17.7445 11.5389ZM20.6812 17.1826L20.3839 18.916L21.9406 18.0977L23.4973 18.916L23.2 17.1826L24.4594 15.955L22.7189 15.7021L21.9406 14.125L21.1623 15.7021L19.4218 15.955L20.6812 17.1826ZM23.6941 12.8714L23.9231 11.5363L22.953 10.5908L24.2936 10.396L24.8931 9.1813L25.4925 10.396L26.8331 10.5908L25.863 11.5363L26.092 12.8714L24.8931 12.241L23.6941 12.8714Z" fill="#F50100"/>
<path d="M21.0464 7.93177L20.8724 7.90192L20.8119 8.25453L21.1286 8.08805L21.0464 7.93177ZM21.2757 6.59518L21.4497 6.62503L21.4654 6.53354L21.3989 6.46875L21.2757 6.59518ZM22.2468 7.30071L22.329 7.14444L22.2468 7.10124L22.1646 7.14444L22.2468 7.30071ZM23.4471 7.93177L23.3649 8.08805L23.6816 8.25453L23.6211 7.90192L23.4471 7.93177ZM23.2179 6.59518L23.0946 6.46875L23.0281 6.53354L23.0439 6.62503L23.2179 6.59518ZM24.1889 5.6486L24.3122 5.77504L24.5684 5.52532L24.2144 5.47387L24.1889 5.6486ZM22.8469 5.4536L22.6886 5.53173L22.7297 5.61497L22.8216 5.62832L22.8469 5.4536ZM22.2468 4.23753L22.4051 4.15939L22.2468 3.83858L22.0885 4.15939L22.2468 4.23753ZM21.6466 5.4536L21.672 5.62832L21.7639 5.61497L21.8049 5.53173L21.6466 5.4536ZM20.3046 5.6486L20.2792 5.47387L19.9252 5.52532L20.1813 5.77504L20.3046 5.6486ZM17.5152 12.8755L17.3412 12.8457L17.2807 13.1983L17.5974 13.0318L17.5152 12.8755ZM17.7444 11.5389L17.9184 11.5688L17.9342 11.4773L17.8677 11.4125L17.7444 11.5389ZM18.7155 12.2445L18.7977 12.0882L18.7155 12.045L18.6333 12.0882L18.7155 12.2445ZM19.9159 12.8755L19.8337 13.0318L20.1504 13.1983L20.0899 12.8457L19.9159 12.8755ZM19.6866 11.5389L19.5634 11.4125L19.4969 11.4773L19.5126 11.5688L19.6866 11.5389ZM20.6577 10.5923L20.781 10.7188L21.0371 10.4691L20.6831 10.4176L20.6577 10.5923ZM19.3157 10.3974L19.1574 10.4755L19.1984 10.5587L19.2903 10.5721L19.3157 10.3974ZM18.7155 9.1813L18.8738 9.10308L18.7155 8.78231L18.5572 9.10308L18.7155 9.1813ZM18.1154 10.3974L18.1407 10.5721L18.2326 10.5587L18.2737 10.4755L18.1154 10.3974ZM16.7734 10.5923L16.7479 10.4176L16.3939 10.4691L16.6501 10.7188L16.7734 10.5923ZM20.3839 18.916L20.2099 18.8862L20.1494 19.2388L20.4661 19.0723L20.3839 18.916ZM20.6812 17.1826L20.8552 17.2125L20.8709 17.121L20.8044 17.0562L20.6812 17.1826ZM21.9406 18.0977L22.0227 17.9413L21.9406 17.8982L21.8584 17.9413L21.9406 18.0977ZM23.4973 18.916L23.4152 19.0723L23.7318 19.2388L23.6713 18.8862L23.4973 18.916ZM23.2 17.1826L23.0768 17.0562L23.0103 17.121L23.0259 17.2125L23.2 17.1826ZM24.4593 15.955L24.5826 16.0814L24.8388 15.8318L24.4848 15.7803L24.4593 15.955ZM22.7189 15.7021L22.5606 15.7802L22.6017 15.8635L22.6936 15.8769L22.7189 15.7021ZM21.9406 14.125L22.0989 14.0468L21.9406 13.7261L21.7822 14.0468L21.9406 14.125ZM21.1622 15.7021L21.1877 15.8769L21.2795 15.8635L21.3205 15.7802L21.1622 15.7021ZM19.4218 15.955L19.3964 15.7803L19.0423 15.8318L19.2985 16.0814L19.4218 15.955ZM23.923 11.5363L24.097 11.5661L24.1128 11.4747L24.0463 11.4099L23.923 11.5363ZM23.694 12.8714L23.52 12.8415L23.4596 13.1942L23.7762 13.0277L23.694 12.8714ZM22.953 10.5908L22.9276 10.4161L22.5736 10.4675L22.8298 10.7172L22.953 10.5908ZM24.2936 10.396L24.3189 10.5707L24.4108 10.5573L24.4518 10.4741L24.2936 10.396ZM24.8931 9.1813L25.0514 9.10308L24.8931 8.78231L24.7347 9.10308L24.8931 9.1813ZM25.4925 10.396L25.3342 10.4741L25.3753 10.5573L25.4672 10.5707L25.4925 10.396ZM26.833 10.5908L26.9563 10.7172L27.2125 10.4675L26.8585 10.4161L26.833 10.5908ZM25.863 11.5363L25.7398 11.4099L25.6733 11.4747L25.689 11.5661L25.863 11.5363ZM26.092 12.8714L26.0099 13.0277L26.3265 13.1942L26.266 12.8415L26.092 12.8714ZM24.8931 12.241L24.9752 12.0848L24.8931 12.0416L24.8109 12.0848L24.8931 12.241ZM21.2204 7.96162L21.4497 6.62503L21.1017 6.56534L20.8724 7.90192L21.2204 7.96162ZM22.1646 7.14444L20.9643 7.77549L21.1286 8.08805L22.329 7.457L22.1646 7.14444ZM23.5292 7.77549L22.329 7.14444L22.1646 7.457L23.3649 8.08805L23.5292 7.77549ZM23.0439 6.62503L23.2731 7.96162L23.6211 7.90192L23.3919 6.56534L23.0439 6.62503ZM24.0657 5.52217L23.0946 6.46875L23.3411 6.72161L24.3122 5.77504L24.0657 5.52217ZM22.8216 5.62832L24.1635 5.82333L24.2144 5.47387L22.8723 5.27887L22.8216 5.62832ZM22.0885 4.31566L22.6886 5.53173L23.0053 5.37546L22.4051 4.15939L22.0885 4.31566ZM21.8049 5.53173L22.4051 4.31566L22.0885 4.15939L21.4883 5.37546L21.8049 5.53173ZM20.33 5.82333L21.672 5.62832L21.6212 5.27887L20.2792 5.47387L20.33 5.82333ZM21.3989 6.46875L20.4278 5.52217L20.1813 5.77504L21.1524 6.72161L21.3989 6.46875ZM17.6892 12.9053L17.9184 11.5688L17.5704 11.5091L17.3412 12.8457L17.6892 12.9053ZM18.6333 12.0882L17.4331 12.7192L17.5974 13.0318L18.7977 12.4007L18.6333 12.0882ZM19.998 12.7192L18.7977 12.0882L18.6333 12.4007L19.8337 13.0318L19.998 12.7192ZM19.5126 11.5688L19.7419 12.9053L20.0899 12.8457L19.8606 11.5091L19.5126 11.5688ZM20.5345 10.4659L19.5634 11.4125L19.8099 11.6653L20.781 10.7188L20.5345 10.4659ZM19.2903 10.5721L20.6323 10.7671L20.6831 10.4176L19.3411 10.2226L19.2903 10.5721ZM18.5572 9.25943L19.1574 10.4755L19.474 10.3192L18.8738 9.10308L18.5572 9.25943ZM18.2737 10.4755L18.8738 9.25943L18.5572 9.10308L17.957 10.3192L18.2737 10.4755ZM16.7988 10.7671L18.1407 10.5721L18.09 10.2226L16.7479 10.4176L16.7988 10.7671ZM17.8677 11.4125L16.8966 10.4659L16.6501 10.7188L17.6212 11.6653L17.8677 11.4125ZM20.5579 18.9459L20.8552 17.2125L20.5072 17.1528L20.2099 18.8862L20.5579 18.9459ZM21.8584 17.9413L20.3017 18.7598L20.4661 19.0723L22.0227 18.2539L21.8584 17.9413ZM23.5795 18.7598L22.0227 17.9413L21.8584 18.2539L23.4152 19.0723L23.5795 18.7598ZM23.0259 17.2125L23.3233 18.9459L23.6713 18.8862L23.374 17.1528L23.0259 17.2125ZM24.3361 15.8286L23.0768 17.0562L23.3233 17.3091L24.5826 16.0814L24.3361 15.8286ZM22.6936 15.8769L24.434 16.1297L24.4848 15.7803L22.7443 15.5274L22.6936 15.8769ZM21.7822 14.2032L22.5606 15.7802L22.8773 15.6239L22.0989 14.0468L21.7822 14.2032ZM21.3205 15.7802L22.0989 14.2032L21.7822 14.0468L21.0039 15.6239L21.3205 15.7802ZM19.4472 16.1297L21.1877 15.8769L21.1368 15.5274L19.3964 15.7803L19.4472 16.1297ZM20.8044 17.0562L19.545 15.8286L19.2985 16.0814L20.558 17.3091L20.8044 17.0562ZM23.749 11.5064L23.52 12.8415L23.868 12.9013L24.097 11.5661L23.749 11.5064ZM22.8298 10.7172L23.7998 11.6627L24.0463 11.4099L23.0763 10.4644L22.8298 10.7172ZM24.2681 10.2212L22.9276 10.4161L22.9784 10.7655L24.3189 10.5707L24.2681 10.2212ZM24.7347 9.10308L24.1352 10.3178L24.4518 10.4741L25.0514 9.25943L24.7347 9.10308ZM25.6509 10.3178L25.0514 9.10308L24.7347 9.25943L25.3342 10.4741L25.6509 10.3178ZM26.8585 10.4161L25.5179 10.2212L25.4672 10.5707L26.8077 10.7655L26.8585 10.4161ZM25.9863 11.6627L26.9563 10.7172L26.7098 10.4644L25.7398 11.4099L25.9863 11.6627ZM26.266 12.8415L26.0371 11.5064L25.689 11.5661L25.918 12.9013L26.266 12.8415ZM24.8109 12.3974L26.0099 13.0277L26.1742 12.7151L24.9752 12.0848L24.8109 12.3974ZM23.7762 13.0277L24.9752 12.3974L24.8109 12.0848L23.6119 12.7151L23.7762 13.0277Z" fill="#F7FCFF"/>
</g>
</g>
<defs>
<filter id="filter0_d_2_36" x="-4" y="0" width="36.2499" height="29.1874" filterUnits="userSpaceOnUse" color-interpolation-filters="sRGB">
<feFlood flood-opacity="0" result="BackgroundImageFix"/>
<feColorMatrix in="SourceAlpha" type="matrix" values="0 0 0 0 0 0 0 0 0 0 0 0 0 0 0 0 0 0 127 0" result="hardAlpha"/>
<feOffset dy="4"/>
<feGaussianBlur stdDeviation="2"/>
<feComposite in2="hardAlpha" operator="out"/>
<feColorMatrix type="matrix" values="0 0 0 0 0 0 0 0 0 0 0 0 0 0 0 0 0 0 1 0"/>
<feBlend mode="normal" in2="BackgroundImageFix" result="effect1_dropShadow_2_36"/>
<feBlend mode="normal" in="SourceGraphic" in2="effect1_dropShadow_2_36" result="shape"/>
</filter>
</defs>
</svg>
