<svg width="29" height="22" viewBox="0 0 29 22" fill="none" xmlns="http://www.w3.org/2000/svg">
<mask id="mask0_3_363" style="mask-type:luminance" maskUnits="userSpaceOnUse" x="0" y="0" width="29" height="22">
<path d="M0 0H28.25V21.1875H0V0Z" fill="white"/>
</mask>
<g mask="url(#mask0_3_363)">
<path fill-rule="evenodd" clip-rule="evenodd" d="M0 0V21.1875H28.25V0H0Z" fill="#FFB400"/>
<mask id="mask1_3_363" style="mask-type:luminance" maskUnits="userSpaceOnUse" x="0" y="0" width="29" height="22">
<path fill-rule="evenodd" clip-rule="evenodd" d="M0 0V21.1875H28.25V0H0Z" fill="white"/>
</mask>
<g mask="url(#mask1_3_363)">
<path fill-rule="evenodd" clip-rule="evenodd" d="M0 0V5.29688H28.25V0H0Z" fill="#C51918"/>
<path fill-rule="evenodd" clip-rule="evenodd" d="M0 15.8906V21.1875H28.25V15.8906H0Z" fill="#C51918"/>
<path d="M4.42114 9.06825H5.40989V14.2098H4.42114V9.06825Z" fill="#F1F9FF"/>
<path fill-rule="evenodd" clip-rule="evenodd" d="M5.80538 8.17831H4.02563V8.67269H4.32226V9.06817H5.50876V8.67269H5.80538V8.17831Z" fill="#C88A02"/>
<path fill-rule="evenodd" clip-rule="evenodd" d="M5.50876 14.5063H5.80538V15.0007H4.02563V14.5063H4.32226V14.1108H5.50876V14.5063Z" fill="#C88A02"/>
<path fill-rule="evenodd" clip-rule="evenodd" d="M4.91551 8.27719C5.13068 8.27719 5.15255 8.19616 5.2795 8.07515C5.37806 7.98119 5.60764 7.86465 5.60764 7.73337C5.60764 7.43303 5.29776 7.18956 4.91551 7.18956C4.53326 7.18956 4.22339 7.43303 4.22339 7.73337C4.22339 7.87963 4.38148 7.97742 4.50102 8.07515C4.62696 8.17812 4.71941 8.27719 4.91551 8.27719Z" fill="#AD1619"/>
<path fill-rule="evenodd" clip-rule="evenodd" d="M4.02563 15.0007H5.80538V15.7917C5.80538 15.7917 5.58292 15.6928 5.36045 15.6928C5.13798 15.6928 4.91551 15.7917 4.91551 15.7917C4.91551 15.7917 4.69304 15.6928 4.47057 15.6928C4.2481 15.6928 4.02563 15.7917 4.02563 15.7917V15.0007Z" fill="#005BBF"/>
<mask id="mask2_3_363" style="mask-type:luminance" maskUnits="userSpaceOnUse" x="4" y="15" width="2" height="1">
<path fill-rule="evenodd" clip-rule="evenodd" d="M4.02563 15.0007H5.80538V15.7917C5.80538 15.7917 5.58292 15.6928 5.36045 15.6928C5.13798 15.6928 4.91551 15.7917 4.91551 15.7917C4.91551 15.7917 4.69304 15.6928 4.47057 15.6928C4.2481 15.6928 4.02563 15.7917 4.02563 15.7917V15.0007Z" fill="white"/>
</mask>
<g mask="url(#mask2_3_363)">
<path d="M4.00956 15.6363L3.9707 15.5416C4.131 15.4702 4.29188 15.4345 4.45299 15.4345C4.55708 15.4345 4.61144 15.449 4.70384 15.4901C4.78501 15.5262 4.82708 15.5374 4.91585 15.5374C5.00462 15.5374 5.04669 15.5262 5.12786 15.4901C5.22026 15.449 5.27462 15.4345 5.37871 15.4345C5.53982 15.4345 5.7007 15.4702 5.861 15.5416L5.82215 15.6363C5.67388 15.5703 5.52617 15.5374 5.37871 15.5374C5.28994 15.5374 5.24787 15.5487 5.1667 15.5848C5.0743 15.626 5.01994 15.6404 4.91585 15.6404C4.81176 15.6404 4.7574 15.626 4.665 15.5848C4.58383 15.5487 4.54176 15.5374 4.45299 15.5374C4.30553 15.5374 4.15782 15.5703 4.00956 15.6363Z" fill="white"/>
<path d="M4.00956 15.3397L3.9707 15.2449C4.131 15.1736 4.29188 15.1378 4.45299 15.1378C4.55708 15.1378 4.61144 15.1523 4.70384 15.1934C4.78501 15.2296 4.82708 15.2408 4.91585 15.2408C5.00462 15.2408 5.04669 15.2296 5.12786 15.1934C5.22026 15.1523 5.27462 15.1378 5.37871 15.1378C5.53982 15.1378 5.7007 15.1736 5.861 15.2449L5.82215 15.3397C5.67388 15.2736 5.52617 15.2408 5.37871 15.2408C5.28994 15.2408 5.24787 15.252 5.1667 15.2881C5.0743 15.3292 5.01994 15.3438 4.91585 15.3438C4.81176 15.3438 4.7574 15.3292 4.665 15.2881C4.58383 15.252 4.54176 15.2408 4.45299 15.2408C4.30553 15.2408 4.15782 15.2736 4.00956 15.3397Z" fill="white"/>
</g>
<path d="M14.1108 9.06825H15.0996V14.2098H14.1108V9.06825Z" fill="#F1F9FF"/>
<path fill-rule="evenodd" clip-rule="evenodd" d="M15.4951 8.17831H13.7153V8.67269H14.012V9.06817H15.1985V8.67269H15.4951V8.17831Z" fill="#C88A02"/>
<path fill-rule="evenodd" clip-rule="evenodd" d="M15.1985 14.5063H15.4951V15.0007H13.7153V14.5063H14.012V14.1108H15.1985V14.5063Z" fill="#C88A02"/>
<path fill-rule="evenodd" clip-rule="evenodd" d="M14.6052 8.27719C14.8204 8.27719 14.8422 8.19616 14.9692 8.07515C15.0678 7.98119 15.2973 7.86465 15.2973 7.73337C15.2973 7.43303 14.9875 7.18956 14.6052 7.18956C14.223 7.18956 13.9131 7.43303 13.9131 7.73337C13.9131 7.87963 14.0712 7.97742 14.1907 8.07515C14.3166 8.17812 14.4091 8.27719 14.6052 8.27719Z" fill="#AD1619"/>
<path fill-rule="evenodd" clip-rule="evenodd" d="M13.7153 15.0007H15.4951V15.7917C15.4951 15.7917 15.2726 15.6928 15.0501 15.6928C14.8277 15.6928 14.6052 15.7917 14.6052 15.7917C14.6052 15.7917 14.3827 15.6928 14.1603 15.6928C13.9378 15.6928 13.7153 15.7917 13.7153 15.7917V15.0007Z" fill="#005BBF"/>
<mask id="mask3_3_363" style="mask-type:luminance" maskUnits="userSpaceOnUse" x="13" y="15" width="3" height="1">
<path fill-rule="evenodd" clip-rule="evenodd" d="M13.7153 15.0007H15.4951V15.7917C15.4951 15.7917 15.2726 15.6928 15.0501 15.6928C14.8277 15.6928 14.6052 15.7917 14.6052 15.7917C14.6052 15.7917 14.3827 15.6928 14.1603 15.6928C13.9378 15.6928 13.7153 15.7917 13.7153 15.7917V15.0007Z" fill="white"/>
</mask>
<g mask="url(#mask3_3_363)">
<path d="M13.6992 15.6363L13.6604 15.5416C13.8206 15.4702 13.9816 15.4345 14.1427 15.4345C14.2468 15.4345 14.3011 15.449 14.3935 15.4901C14.4747 15.5262 14.5167 15.5374 14.6055 15.5374C14.6943 15.5374 14.7364 15.5262 14.8175 15.4901C14.9099 15.449 14.9643 15.4345 15.0684 15.4345C15.2295 15.4345 15.3904 15.4702 15.5507 15.5416L15.5118 15.6363C15.3635 15.5703 15.2158 15.5374 15.0684 15.5374C14.9796 15.5374 14.9376 15.5487 14.8563 15.5848C14.7639 15.626 14.7096 15.6404 14.6055 15.6404C14.5015 15.6404 14.4471 15.626 14.3546 15.5848C14.2735 15.5487 14.2314 15.5374 14.1427 15.5374C13.9952 15.5374 13.8475 15.5703 13.6992 15.6363Z" fill="white"/>
<path d="M13.6992 15.3397L13.6604 15.2449C13.8206 15.1736 13.9816 15.1378 14.1427 15.1378C14.2468 15.1378 14.3011 15.1523 14.3935 15.1934C14.4747 15.2296 14.5167 15.2408 14.6055 15.2408C14.6943 15.2408 14.7364 15.2296 14.8175 15.1934C14.9099 15.1523 14.9643 15.1378 15.0684 15.1378C15.2295 15.1378 15.3904 15.1736 15.5507 15.2449L15.5118 15.3397C15.3635 15.2736 15.2158 15.2408 15.0684 15.2408C14.9796 15.2408 14.9376 15.252 14.8563 15.2881C14.7639 15.3292 14.7096 15.3438 14.6055 15.3438C14.5015 15.3438 14.4471 15.3292 14.3546 15.2881C14.2735 15.252 14.2314 15.2408 14.1427 15.2408C13.9952 15.2408 13.8475 15.2736 13.6992 15.3397Z" fill="white"/>
</g>
<path fill-rule="evenodd" clip-rule="evenodd" d="M4.4034 13.8424C4.58166 13.6263 4.68135 13.4297 4.68135 13.2208C4.68135 13.0892 4.64216 12.9755 4.57352 12.8825L4.58512 12.8773C4.58405 12.8779 4.78068 12.7921 4.84913 12.7593C4.9764 12.6983 5.0885 12.6337 5.19782 12.5541C5.26761 12.5034 5.36112 12.4481 5.50366 12.3716C5.52829 12.3583 5.59504 12.3229 5.63762 12.3003L5.67376 12.2812C5.74305 12.2442 5.79463 12.2158 5.84256 12.188C5.9919 12.1014 6.0906 12.0298 6.16608 11.934C6.34487 11.7073 6.30775 11.4 6.05721 11.2295C5.93447 11.1459 5.76883 11.0979 5.52603 11.0602L5.47582 11.0525C5.39288 11.0396 5.23351 11.0149 5.17877 11.0064C5.06258 10.9881 4.95891 10.9711 4.86647 10.9549C5.47435 10.8538 6.34236 10.891 6.72418 11.0881L7.08706 10.3852C6.309 9.98355 4.5362 10.0246 3.87397 10.4806C3.38825 10.8152 3.45343 11.3207 3.9588 11.5385C4.16996 11.6295 4.44525 11.6899 4.95468 11.7717C4.86931 11.8212 4.79854 11.8665 4.73259 11.9144C4.66571 11.9631 4.59406 12.0044 4.50715 12.0461C4.46558 12.0659 4.34253 12.12 4.2861 12.1448L4.2577 12.1573C3.84606 12.3445 3.64628 12.6034 3.70598 13.0708L3.7383 13.3239L3.79626 13.3416L4.4034 13.8424ZM3.89456 13.1885L3.89331 13.1921L3.89426 13.1896L3.89456 13.1885ZM14.7482 13.2208C14.7482 13.4297 14.8479 13.6263 15.0261 13.8424L15.6333 13.3416L15.6912 13.3239L15.7235 13.0708C15.7833 12.6034 15.5835 12.3445 15.1719 12.1573L15.1435 12.1448C15.0871 12.12 14.964 12.0659 14.9224 12.0461C14.8355 12.0044 14.7638 11.9631 14.697 11.9144C14.631 11.8665 14.5602 11.8212 14.4749 11.7717C14.9843 11.6899 15.2596 11.6295 15.4708 11.5385C15.9761 11.3207 16.0413 10.8152 15.5555 10.4806C14.8933 10.0246 13.1206 9.98355 12.3424 10.3852L12.7054 11.0881C13.0872 10.891 13.9552 10.8538 14.5631 10.9549C14.4706 10.9711 14.367 10.9881 14.2507 11.0064C14.1961 11.0149 14.0367 11.0396 13.9538 11.0524L13.9035 11.0602C13.6607 11.0979 13.495 11.1459 13.3723 11.2295C13.1218 11.4 13.0847 11.7073 13.2635 11.934C13.339 12.0298 13.4377 12.1014 13.5869 12.188C13.6349 12.2158 13.6865 12.2442 13.7557 12.2812L13.7918 12.3002C13.8343 12.3228 13.9012 12.3583 13.9259 12.3716C14.0684 12.4481 14.1619 12.5034 14.2317 12.5541C14.341 12.6337 14.4532 12.6983 14.5804 12.7593C14.6489 12.7921 14.8455 12.8779 14.8444 12.8773L14.856 12.8825C14.7874 12.9755 14.7482 13.0892 14.7482 13.2208Z" fill="#AD1619"/>
<path d="M5.22923 10.9468L5.52107 11.0072V11.4421C5.21024 11.6902 4.42114 12.1082 4.42114 12.1082V10.9468H5.22923Z" fill="#F1F9FF"/>
<path d="M14.4027 10.9468L14.1108 11.0072V11.4421C14.4217 11.6902 15.2108 12.1082 15.2108 12.1082V10.9468H14.4027Z" fill="#F1F9FF"/>
<path fill-rule="evenodd" clip-rule="evenodd" d="M13.0445 6.36146V6.2167C12.536 5.8517 12.0034 5.6692 11.4468 5.6692C10.9132 5.43308 10.3731 5.34141 9.8265 5.39422L9.82677 5.39168C9.00487 5.31127 8.1766 5.6692 8.1766 5.6692C7.34171 5.6692 6.57886 6.2167 6.57886 6.2167V6.36146L7.57611 7.36304C7.57611 7.36304 7.85681 8.32707 9.82271 8.10049V8.10294C9.82271 8.10294 11.1242 8.06742 11.2157 8.03699C11.252 8.02493 11.2897 8.01394 11.3281 8.00271C11.583 7.92828 11.8741 7.84331 12.0473 7.36304L13.0445 6.36146ZM9.82271 5.43851C9.79428 5.77197 9.63229 7.78207 9.82271 8.09371V5.43851Z" fill="#AD1619"/>
<path fill-rule="evenodd" clip-rule="evenodd" d="M7.33947 7.19448L7.34013 7.19144L6.63855 6.53137L6.7063 6.45935L7.36464 7.07873L7.38148 7.00124C7.48918 7.02466 7.5679 7.03327 7.61379 7.0284V6.89403L7.75972 6.97301C7.8315 7.01185 7.9343 7.02231 8.06969 7.00027C8.16913 6.98409 8.23624 6.8686 8.25817 6.6225L8.30247 6.12569L8.45104 6.60183C8.51828 6.81729 8.62084 6.91227 8.76686 6.91227C8.90951 6.91227 8.96681 6.85998 8.97317 6.7282L8.99109 6.35443L9.16014 6.68828C9.22097 6.80855 9.30501 6.86312 9.42437 6.86312C9.59519 6.86312 9.70925 6.72074 9.70925 6.49735H9.71243H9.907H9.91018C9.91018 6.72074 10.0243 6.86312 10.1951 6.86312C10.3145 6.86312 10.3985 6.80855 10.4594 6.68828L10.6284 6.35443L10.6464 6.7282C10.6526 6.85998 10.71 6.91227 10.8526 6.91227C10.9986 6.91227 11.1012 6.81729 11.1684 6.60183L11.3169 6.12569L11.3613 6.6225C11.3832 6.8686 11.4503 6.98409 11.5497 7.00027C11.6852 7.02231 11.7879 7.01185 11.8597 6.97301L12.0056 6.89403V7.0284C12.0515 7.03327 12.1303 7.02466 12.238 7.00124L12.2692 7.14503L12.998 6.45935L13.0658 6.53137L12.1589 7.38461C12.0265 7.6283 11.9599 7.78914 11.9599 7.85595C11.9599 7.95788 11.6947 8.01838 11.1772 8.08052C10.7717 8.1292 10.2932 8.16188 9.9018 8.16676L9.85218 8.16724L9.80257 8.16739C9.41113 8.16251 8.93264 8.1292 8.52715 8.08052C8.00959 8.01838 7.74441 7.95788 7.74441 7.85595C7.74441 7.8433 7.74202 7.82731 7.73726 7.80801C7.68507 7.74155 7.64838 7.63282 7.62396 7.53474C7.60105 7.48888 7.57488 7.43879 7.54546 7.38461L7.34453 7.19558L7.33947 7.19448ZM12.1998 7.2104C12.0378 7.23906 11.9209 7.23617 11.8588 7.18565C11.7618 7.21389 11.648 7.2166 11.518 7.19545C11.3792 7.17287 11.2825 7.08054 11.2243 6.92737C11.1484 7.02411 11.0524 7.08383 10.9374 7.10315C11.5701 7.19287 12.0133 7.31901 12.0133 7.31901C12.0133 7.31901 12.0024 7.41271 11.9759 7.52289C12.0039 7.46521 12.0373 7.40112 12.0758 7.33039L12.0853 7.31803L12.1998 7.2104ZM10.6389 7.06556C10.5838 7.03822 10.5398 6.99857 10.5081 6.94747C10.4609 6.98913 10.4073 7.01961 10.3477 7.0384C10.4471 7.04601 10.5444 7.0552 10.6389 7.06556ZM9.99864 7.01916C9.92157 6.98357 9.85757 6.92657 9.80972 6.85354C9.76222 6.92606 9.69875 6.98277 9.62247 7.0184C9.66767 7.01706 9.71314 7.01611 9.75878 7.0156L9.79842 7.01526L9.83806 7.01515C9.89191 7.01576 9.94549 7.01741 9.99864 7.01916ZM7.61179 7.31126L7.51961 7.22453C7.63027 7.23551 7.71217 7.2251 7.76061 7.18565C7.85766 7.21389 7.97149 7.2166 8.10145 7.19545C8.24026 7.17287 8.33693 7.08054 8.3951 6.92737C8.46883 7.02131 8.5615 7.08034 8.67211 7.10136C8.12658 7.17801 7.71956 7.28229 7.61179 7.31126ZM9.26749 7.03702C9.17171 7.04414 9.07795 7.05275 8.98676 7.06247C9.03893 7.03526 9.08078 6.99668 9.11141 6.94747C9.15741 6.98813 9.20958 7.01813 9.26749 7.03702ZM11.7 7.85788C11.7692 7.89031 11.8247 7.85797 11.8687 7.79589C11.8649 7.81303 11.8625 7.82853 11.8616 7.84241C11.8557 7.84621 11.8468 7.85078 11.8352 7.85569C11.8026 7.86938 11.7529 7.88397 11.6882 7.89873C11.561 7.92775 11.38 7.95659 11.1654 7.98235C10.7464 8.03265 10.2482 8.06576 9.85218 8.06835C9.45606 8.06576 8.95789 8.03265 8.53894 7.98235C8.32439 7.95659 8.14336 7.92775 8.01617 7.89873C7.96194 7.88636 7.91821 7.87411 7.88631 7.8624C7.88981 7.86107 7.89336 7.85957 7.89695 7.85788C8.11294 7.75682 9.54125 7.66197 9.79842 7.6456C10.0557 7.66197 11.484 7.75682 11.7 7.85788Z" fill="#C88A02"/>
<path fill-rule="evenodd" clip-rule="evenodd" d="M9.81018 4.72045C9.97394 4.72045 10.1068 4.58765 10.1068 4.42382C10.1068 4.26 9.97394 4.1272 9.81018 4.1272C9.64633 4.1272 9.51355 4.26 9.51355 4.42382C9.51355 4.58765 9.64633 4.72045 9.81018 4.72045Z" fill="#005BBF"/>
<path fill-rule="evenodd" clip-rule="evenodd" d="M9.61722 6.17685C9.62349 6.20941 9.63337 6.23971 9.64591 6.26672C9.6076 6.25209 9.56213 6.24361 9.51331 6.24361C9.37683 6.24361 9.26612 6.31001 9.26612 6.39192C9.26612 6.47384 9.37683 6.54023 9.51331 6.54023C9.64979 6.54023 9.7605 6.47384 9.7605 6.39192C9.7605 6.47384 9.8712 6.54023 10.0077 6.54023C10.1442 6.54023 10.2549 6.47384 10.2549 6.39192C10.2549 6.31001 10.1442 6.24361 10.0077 6.24361C9.97334 6.24361 9.94059 6.24782 9.91084 6.25542C9.91799 6.21487 9.91773 6.16838 9.90837 6.12025C9.88233 5.98624 9.79599 5.89027 9.71556 5.9059C9.63523 5.92153 9.59109 6.04284 9.61722 6.17685ZM8.16276 6.36559C8.15027 6.33859 8.14038 6.30828 8.13405 6.27572C8.10801 6.14171 8.15207 6.02041 8.23247 6.00478C8.31288 5.98915 8.39918 6.08512 8.42523 6.21913C8.43458 6.26726 8.43489 6.31375 8.42772 6.35429C8.45746 6.34669 8.49019 6.34248 8.52455 6.34248C8.66107 6.34248 8.77174 6.40889 8.77174 6.49079C8.77174 6.57271 8.66107 6.63911 8.52455 6.63911C8.38803 6.63911 8.27736 6.57271 8.27736 6.49079C8.27736 6.57271 8.1667 6.63911 8.03018 6.63911C7.89366 6.63911 7.78299 6.57271 7.78299 6.49079C7.78299 6.40889 7.89366 6.34248 8.03018 6.34248C8.07896 6.34248 8.12444 6.35097 8.16276 6.36559ZM11.2594 6.45598C11.248 6.53709 11.1292 6.58745 10.9941 6.56845C10.8588 6.54945 10.7585 6.46829 10.7699 6.38718C10.7813 6.30607 10.9001 6.25571 11.0353 6.27471C11.0837 6.2815 11.1274 6.29622 11.1634 6.31605C11.1547 6.28756 11.1492 6.25617 11.1475 6.22306C11.1403 6.08672 11.2008 5.97272 11.2826 5.96844C11.3644 5.96415 11.4365 6.07119 11.4437 6.20753C11.4462 6.2565 11.44 6.30258 11.4273 6.34173C11.4579 6.33834 11.4908 6.33873 11.5249 6.34351C11.66 6.36251 11.7604 6.44367 11.749 6.52478C11.7376 6.6059 11.6188 6.65625 11.4836 6.63725C11.3484 6.61825 11.248 6.53709 11.2594 6.45598ZM12.2009 6.84817C12.3214 6.91227 12.4503 6.90559 12.4887 6.83326L12.4908 6.82922C12.5027 6.84178 12.5167 6.85094 12.5328 6.85584C12.6111 6.87979 12.707 6.79336 12.7469 6.66281C12.7868 6.53226 12.7556 6.40701 12.6773 6.38307C12.599 6.35911 12.5031 6.44553 12.4632 6.57608C12.4535 6.6078 12.448 6.6392 12.4464 6.66892C12.4194 6.63801 12.3832 6.60917 12.3402 6.58627C12.2196 6.52218 12.0907 6.52885 12.0523 6.60117C12.0138 6.67349 12.0804 6.78408 12.2009 6.84817ZM7.34937 6.87846C7.22883 6.94256 7.09994 6.93588 7.06149 6.86355C7.06078 6.86222 7.06011 6.86087 7.05946 6.85951C7.04759 6.87207 7.03353 6.88122 7.01749 6.88613C6.93916 6.91007 6.84331 6.82365 6.80339 6.6931C6.76348 6.56255 6.79463 6.4373 6.87296 6.41335C6.95129 6.3894 7.04715 6.47582 7.08706 6.60637C7.09675 6.63809 7.10226 6.66949 7.10391 6.69921C7.13087 6.66829 7.16704 6.63946 7.21011 6.61656C7.33065 6.55247 7.45954 6.55914 7.498 6.63146C7.53646 6.70378 7.46991 6.81437 7.34937 6.87846Z" fill="#C88A02"/>
<path fill-rule="evenodd" clip-rule="evenodd" d="M9.69937 3.59882H9.90533V3.72894H10.04V3.93493H9.90533V4.34691H10.04V4.5529H9.56262V4.34691H9.69937V3.93493H9.56262V3.72894H9.69937V3.59882Z" fill="#C88A02"/>
<path d="M9.66162 4.71774H10.0571V6.00312H9.66162V4.71774Z" fill="#C88A02"/>
<path d="M8.06951 4.93302L8.06779 5.03189C7.19107 5.01658 6.68816 5.14452 6.56051 5.39952C6.42853 5.66315 6.45307 5.98363 6.638 6.36433L6.54907 6.40753C6.35175 6.00135 6.32481 5.64947 6.4721 5.35526C6.6237 5.05242 7.1557 4.91707 8.06951 4.93302Z" fill="white"/>
<path d="M8.23915 5.80974L8.18846 5.89463C7.99753 5.78063 7.90198 5.58608 7.90198 5.31797C7.90198 4.93264 8.10047 4.70668 8.53954 4.55205C8.81977 4.45336 9.2026 4.49382 9.68903 4.67018L9.65531 4.76314C9.1883 4.59383 8.827 4.55564 8.57239 4.64531C8.16966 4.78714 8.00085 4.9793 8.00085 5.31797C8.00085 5.55324 8.08022 5.71484 8.23915 5.80974Z" fill="white"/>
<path d="M6.76247 6.21264L6.57589 6.27817C6.38231 5.72699 6.43759 5.35267 6.76837 5.19119C7.05985 5.04891 7.48464 4.99101 8.04488 5.01371L8.03687 5.2113C7.50644 5.18981 7.11182 5.2436 6.85512 5.3689C6.63773 5.47502 6.59796 5.74427 6.76247 6.21264Z" fill="#C88A02"/>
<path d="M8.9424 4.80127C8.49029 4.80127 8.30462 4.91138 8.19855 5.23651C8.13096 5.44371 8.19651 5.62055 8.40909 5.78562L8.2878 5.94181C8.01259 5.72809 7.91556 5.46636 8.01056 5.17518C8.14573 4.76083 8.41098 4.60352 8.9424 4.60352C9.29076 4.60352 9.56205 4.69503 9.75097 4.88127L9.78046 4.91031V5.86371H9.58271V4.99483C9.43519 4.86666 9.22322 4.80127 8.9424 4.80127Z" fill="#C88A02"/>
<path d="M11.5199 5.03185L11.5217 5.13071C12.3984 5.11541 12.9013 5.24335 13.029 5.49835C13.161 5.76198 13.1364 6.08246 12.9515 6.46316L13.0404 6.50636C13.2377 6.10018 13.2646 5.7483 13.1173 5.45408C12.9658 5.15124 12.4338 5.0159 11.5199 5.03185Z" fill="white"/>
<path d="M11.2103 5.83032L11.261 5.91522C11.452 5.80121 11.5475 5.60667 11.5475 5.33856C11.5475 4.95323 11.349 4.72726 10.9099 4.57263C10.6297 4.47394 10.2469 4.51441 9.7605 4.69077L9.79422 4.78373C10.2611 4.61442 10.6225 4.57622 10.8771 4.66589C11.2798 4.80772 11.4486 4.99989 11.4486 5.33856C11.4486 5.57383 11.3692 5.73542 11.2103 5.83032Z" fill="white"/>
<path d="M12.8885 6.31157L13.0751 6.3771C13.2687 5.82591 13.2133 5.45159 12.8825 5.29012C12.5911 5.14783 12.1663 5.08993 11.6061 5.11264L11.6141 5.31023C12.1445 5.28873 12.5391 5.34252 12.7958 5.46783C13.0132 5.57394 13.053 5.84319 12.8885 6.31157Z" fill="#C88A02"/>
<path d="M10.6974 4.81656C11.1496 4.81656 11.3353 4.92668 11.4413 5.2518C11.5089 5.459 11.4433 5.63584 11.2307 5.80092L11.352 5.9571C11.6273 5.74339 11.7243 5.48165 11.6293 5.19047C11.4941 4.77612 11.2289 4.6188 10.6974 4.6188C10.3492 4.6188 10.0778 4.71032 9.88886 4.89656L9.85938 4.9256V5.87901H10.0571V5.01012C10.2047 4.88196 10.4166 4.81656 10.6974 4.81656Z" fill="#C88A02"/>
<path opacity="0.3" fill-rule="evenodd" clip-rule="evenodd" d="M6.59644 8.17831H13.0233V13.9526C13.0233 13.9526 12.5459 15.8905 9.80983 15.8905C7.07383 15.8905 6.59644 13.9016 6.59644 13.9016V8.17831Z" fill="#E1E5E8"/>
<mask id="mask4_3_363" style="mask-type:luminance" maskUnits="userSpaceOnUse" x="6" y="8" width="8" height="8">
<path fill-rule="evenodd" clip-rule="evenodd" d="M6.59644 8.17831H13.0233V13.9526C13.0233 13.9526 12.5459 15.8905 9.80983 15.8905C7.07383 15.8905 6.59644 13.9016 6.59644 13.9016V8.17831Z" fill="white"/>
</mask>
<g mask="url(#mask4_3_363)">
<path d="M6.59644 11.7378H9.85931V15.5939H6.59644V11.7378Z" fill="#FFC034"/>
<path d="M6.99194 11.9355H7.38744V15.5939H6.99194V11.9355Z" fill="#AD1619"/>
<path d="M8.37622 11.9355H8.77172V15.5939H8.37622V11.9355Z" fill="#AD1619"/>
<path d="M7.68408 11.9355H8.07958V15.5939H7.68408V11.9355Z" fill="#AD1619"/>
<path d="M9.06836 11.9355H9.46386V15.5939H9.06836V11.9355Z" fill="#AD1619"/>
<path d="M6.59644 8.07939H9.85931V11.8366H6.59644V8.07939Z" fill="#AD1619"/>
<path d="M9.76038 11.639H13.0233V15.3963H9.76038V11.639Z" fill="#AD1619"/>
<path d="M9.76038 8.17831H13.221V11.8367H9.76038V8.17831Z" fill="#F1F9FF"/>
<path fill-rule="evenodd" clip-rule="evenodd" d="M7.9807 8.47499H8.27732V9.29532H8.47507V8.88516H8.7717V9.29532H9.06833V9.80797H8.7717V10.7308H9.06833V11.2435H7.28857V10.7308H7.5852V9.80797H7.28857V9.29532H7.48632V8.88516H7.78295V9.29532H7.9807V8.47499Z" fill="#C88A02"/>
<path d="M11.4579 8.64713L11.6603 8.43037L12.0855 8.82748L11.883 9.04425L11.4579 8.64713Z" fill="#C88A02"/>
<path fill-rule="evenodd" clip-rule="evenodd" d="M12.6773 14.2485V12.0839H10.2054V14.2304L10.2093 14.2471C10.3344 14.7803 10.7606 15.0501 11.4414 15.0501C12.1214 15.0501 12.5475 14.7873 12.6732 14.2656L12.6773 14.2485ZM11.4414 14.7535C10.8952 14.7535 10.5969 14.5695 10.5021 14.1955V12.3805H12.3807V14.2127C12.2861 14.5745 11.9878 14.7535 11.4414 14.7535Z" fill="#FFC034"/>
<path fill-rule="evenodd" clip-rule="evenodd" d="M11.5433 12.2647H11.3373V13.2462L10.5253 12.363L10.3798 12.4968L11.1141 13.2955H10.4487V13.5921H10.9599H11.1302L10.3798 14.4085L10.5253 14.5423L11.3373 13.6591V14.8063H11.5433V13.7623L12.2604 14.5423L12.406 14.4085L11.6554 13.5921H12.4932V13.2955H11.6717L12.406 12.4968L12.2604 12.363L11.5433 13.143V12.2647Z" fill="#FFC034"/>
<path fill-rule="evenodd" clip-rule="evenodd" d="M11.9027 15.3986C11.9027 15.3986 9.80852 15.5632 9.80852 14.2125C9.80852 14.2125 9.78857 15.3986 7.60181 15.3986V16.4648H11.9027V15.3986Z" fill="#F1F9FF"/>
<path fill-rule="evenodd" clip-rule="evenodd" d="M9.80992 12.5288C10.2195 12.5288 10.5515 12.1746 10.5515 11.7378C10.5515 11.301 10.2195 10.9468 9.80992 10.9468C9.40038 10.9468 9.06836 11.301 9.06836 11.7378C9.06836 12.1746 9.40038 12.5288 9.80992 12.5288Z" fill="#005BBF" stroke="#AD1619" stroke-width="2.04312"/>
</g>
</g>
</g>
</svg>
