<svg height="64" width="64" xmlns="http://www.w3.org/2000/svg" xmlns:xlink="http://www.w3.org/1999/xlink"><linearGradient id="a"><stop offset="0" stop-color="#2e5d89"/><stop offset="1" stop-color="#1b92f4"/></linearGradient><linearGradient id="b"><stop offset="0" stop-color="#2f3943"/><stop offset="1" stop-color="#4d5662"/></linearGradient><linearGradient id="c" gradientTransform="matrix(1.0833321 0 0 1.3356131 -34.04711 -170.45106)" gradientUnits="userSpaceOnUse" x2="0" y1="531.79797" y2="501.69922"><stop offset="0" stop-color="#c6cdd1"/><stop offset="1" stop-color="#e0e5e7"/></linearGradient><linearGradient id="d" gradientTransform="matrix(1.5 0 0 1.5 -182.28572 -282.39512)" gradientUnits="userSpaceOnUse" x2="0" y1="530.79797" y2="528.79797"><stop offset="0" stop-color="#f33777"/><stop offset="1" stop-color="#fd2d65"/></linearGradient><linearGradient id="e" gradientUnits="userSpaceOnUse" x1="395.40549" x2="408.57144" xlink:href="#a" y1="518.65935" y2="531.8253"/><linearGradient id="f" gradientUnits="userSpaceOnUse" x1="392.69657833812" x2="407.17142721712" xlink:href="#a" y1="515.75044730847" y2="530.22528818749"/><linearGradient id="g" gradientUnits="userSpaceOnUse" x1="388.06518083011" x2="405.77143036999" xlink:href="#a" y1="510.91904983911" y2="528.62529337899"/><linearGradient id="h" gradientTransform="matrix(-1 0 0 -1 810.14289 1043.6233)" gradientUnits="userSpaceOnUse" x1="398.5715" x2="418.57147" xlink:href="#b" y1="508.798" y2="528.79797"/><linearGradient id="i" gradientUnits="userSpaceOnUse" x1="393.50478030246" x2="410.37141670528" y1="515.75866204588" y2="532.62530630585"><stop offset="0" stop-color="#18222a"/><stop offset="1" stop-color="#566069"/></linearGradient><linearGradient id="j" gradientUnits="userSpaceOnUse" x1="414.57144" x2="391.57144" y1="534.8253" y2="511.82533"><stop offset="0" stop-color="#a1adb3"/><stop offset="1" stop-color="#bfc7cb"/></linearGradient><linearGradient id="k" gradientTransform="matrix(.70710678 -.70710678 .70710678 .70710678 -254.88488 445.17629)" gradientUnits="userSpaceOnUse" x2="0" y1="519.79797" y2="541.01117"><stop offset="0"/><stop offset="1" stop-opacity="0"/></linearGradient><linearGradient id="l" gradientUnits="userSpaceOnUse" x2="0" xlink:href="#b" y1="41.00002" y2="23.00002"/><linearGradient id="m"><stop offset="0" stop-color="#1d1e1e"/><stop offset="1" stop-color="#44484c"/></linearGradient><linearGradient id="n" gradientTransform="matrix(1.6249997 0 0 1.000019 -255.35713 -36.01031)" gradientUnits="userSpaceOnUse" x2="0" xlink:href="#m" y1="541.79797" y2="543.79797"/><linearGradient id="o" gradientTransform="matrix(1.6249997 0 0 1.000019 -255.35717 -2.01027)" gradientUnits="userSpaceOnUse" x2="0" xlink:href="#m" y1="541.79797" y2="543.79797"/><linearGradient id="p" gradientTransform="translate(0 1.99994)" gradientUnits="userSpaceOnUse" x2="0" xlink:href="#m" y1="504.798" y2="499.798"/><g transform="translate(-376.57144 -491.79797)"><path d="m424.57144 503.79794h5.999985v3.00001h-5.999985z" fill="url(#p)"/><path d="m382.57144 507.77063h52v32.05469h-52z" fill="url(#c)" stroke-linecap="round" stroke-linejoin="round" stroke-width="2"/><path d="m426.07142 510.80188a1.5 1.5 0 0 0 -1.5 1.5 1.5 1.5 0 0 0 1.5 1.5 1.5 1.5 0 0 0 1.5-1.5 1.5 1.5 0 0 0 -1.5-1.5z" fill="url(#d)" stroke-linecap="square" stroke-width=".1"/><g stroke-linecap="round"><path d="m412.88588 512.51088-22.6289 22.6289.68554.68555h32.62891v-10.62891z" fill="url(#k)" opacity=".2" stroke-linejoin="round" stroke-width="2"/><circle cx="401.57144" cy="523.82532" fill="url(#j)" r="16" stroke-linejoin="round" stroke-width="2"/><path d="m387.57147 523.8253a13.999973 13.999973 0 0 1 13.99997-13.99997 13.999973 13.999973 0 0 1 13.99997 13.99997 13.999973 13.999973 0 0 1 -13.99997 13.99998 13.999973 13.999973 0 0 1 -13.99997-13.99998z" fill="url(#h)" stroke-linejoin="round" stroke-width="2"/><circle cx="401.57144" cy="523.82532" fill="url(#i)" r="10.999989" stroke-linejoin="round" stroke-width="2"/><circle cx="401.57144" cy="523.82532" fill="url(#e)" r="9.999989" stroke-linejoin="round" stroke-width="2"/><circle cx="401.57144" cy="523.82532" fill="url(#f)" r="7.999974" stroke-linejoin="round" stroke-width="2"/><circle cx="401.57144" cy="523.82532" fill="url(#g)" r="5.999989" stroke-linejoin="round" stroke-width="2"/><circle cx="401.57144" cy="523.82532" fill="#2c3e50" r="3.999988" stroke-linejoin="round" stroke-width="2"/><circle cx="398.57144" cy="520.82532" fill="#84cbfe" r="1" stroke-linejoin="round" stroke-width="2"/><ellipse cx="396.57141" cy="518.82538" fill="#84cbfe" rx="1.499994" ry="1.499987" stroke-linejoin="round" stroke-width="2"/><path d="m55 23c-1.108011 0-2 .891989-2 2v14c0 1.108011.891989 2 2 2h1 2v-2-14-2h-2z" fill="url(#l)" transform="translate(376.57144 491.79797)"/><path d="m382.57144 505.798h51.999996v2.00001h-51.999996z" fill="url(#n)" stroke-linejoin="round" stroke-width="2"/><path d="m382.57144 539.79797h51.999996v2.00001h-51.999996z" fill="url(#o)" stroke-linejoin="round" stroke-width="2"/></g></g></svg>