<?xml version="1.0" encoding="UTF-8"?>
<svg id="Layer_2" data-name="Layer 2" xmlns="http://www.w3.org/2000/svg" viewBox="0 0 105.5 105.5">
  <defs>
    <style>
      .cls-1, .cls-2 {
        stroke-width: 5px;
      }

      .cls-1, .cls-2, .cls-3, .cls-4 {
        fill: none;
        stroke: #fff;
        stroke-miterlimit: 10;
      }

      .cls-2, .cls-3, .cls-4 {
        stroke-linecap: round;
      }

      .cls-3 {
        stroke-width: 4px;
      }

      .cls-4 {
        stroke-width: 3px;
      }
    </style>
  </defs>
  <g id="Layer_1-2" data-name="Layer 1">
    <circle class="cls-1" cx="52.75" cy="52.75" r="50.25"/>
    <path class="cls-2" d="m11.27,68.9c1.92,1.62,4.94,3.62,8.75,3.78,5.9.23,7.59-4.24,13.8-4.98,6.59-.79,7.94,3.86,15.95,4.5,7.44.59,10.03-3.12,16.18-3.92,5.8-.76,14.3,1.12,25.92,13.07"/>
    <path class="cls-2" d="m25.19,83.73c.43-.54,4.27-5.18,10.73-5.02,4.67.11,5.28,4.19,10.14,5.09,6.3,1.18,9.23-4.42,16.83-4.44,4.45,0,8.09,1.91,10.45,3.51"/>
    <path class="cls-4" d="m18.59,33.35c.12-.24,1.29-2.48,3.2-2.68.6-.06,1.29.07,1.93.19,1.56.3,1.66.64,2.21.58,1.48-.16,1.45-2.65,3.49-3.45.75-.3,2.02-.45,4.24.29"/>
    <path class="cls-4" d="m31.09,39.01c.19-.26,2-2.68,4.3-2.54.72.04,1.5.33,2.24.61,1.79.66,1.83,1.08,2.49,1.12,1.77.11,2.23-2.84,4.8-3.39.95-.2,2.47-.14,4.94,1.17"/>
    <path class="cls-4" d="m27.21,21.81c.1-.19,1.04-1.97,2.57-2.12.48-.05,1.03.06,1.54.17,1.25.25,1.32.52,1.76.48,1.18-.11,1.17-2.1,2.81-2.73.6-.23,1.62-.35,3.38.26"/>
    <path class="cls-3" d="m54.92,64.76c-.4-6.74,4.75-12.53,11.49-12.93,6.74-.4,12.53,4.75,12.93,11.49"/>
    <line class="cls-3" x1="45.2" y1="58.92" x2="49.35" y2="59.75"/>
    <line class="cls-3" x1="50.15" y1="49.31" x2="53.29" y2="52.14"/>
    <line class="cls-3" x1="58.83" y1="43.37" x2="60.76" y2="47.14"/>
    <line class="cls-3" x1="86.93" y1="53.98" x2="83.09" y2="55.75"/>
    <line class="cls-3" x1="79.87" y1="45.78" x2="77.47" y2="49.27"/>
    <line class="cls-3" x1="70.04" y1="42.04" x2="69.05" y2="46.16"/>
  </g>
</svg>