<svg enable-background="new 0 0 128 128" viewBox="0 0 128 128" xmlns="http://www.w3.org/2000/svg" xmlns:xlink="http://www.w3.org/1999/xlink"><linearGradient id="a" gradientTransform="matrix(1 0 0 -1 0 128)" gradientUnits="userSpaceOnUse" x1="24" x2="24" y1="96.723" y2="88.972"><stop offset="0" stop-color="#bdbdbd"/><stop offset=".2106" stop-color="#b8b8b8"/><stop offset=".4759" stop-color="#a8a8a8"/><stop offset=".7694" stop-color="#8e8e8e"/><stop offset="1" stop-color="#757575"/></linearGradient><linearGradient id="b"><stop offset="0" stop-color="#616161"/><stop offset="1" stop-color="#212121"/></linearGradient><linearGradient id="c" gradientTransform="matrix(-.002576 1 1.1098 .0028594 4.8956 -14.019)" gradientUnits="userSpaceOnUse" x1="64.5124" x2="132.8211" xlink:href="#b" y1="53.4903" y2="53.4903"/><linearGradient id="d" gradientTransform="matrix(1 0 0 -1 0 128)" gradientUnits="userSpaceOnUse" x1="78" x2="78" xlink:href="#b" y1="69.226" y2="17.348"/><radialGradient id="e" cx="77.875" cy="66.473" gradientTransform="matrix(.9999 0 0 -1 .005489 128)" gradientUnits="userSpaceOnUse" r="46.878"><stop offset="0" stop-color="#424242"/><stop offset="1" stop-color="#212121"/></radialGradient><radialGradient id="f" cx="77.875" cy="43.098" gradientTransform="matrix(.9999 0 0 -1 .005489 128)" gradientUnits="userSpaceOnUse" r="10"><stop offset="0" stop-color="#757575"/><stop offset=".2031" stop-color="#6a6a6a"/><stop offset=".5578" stop-color="#4d4d4d"/><stop offset="1" stop-color="#212121"/></radialGradient><linearGradient id="g" gradientTransform="matrix(1 0 0 -1 0 128)" gradientUnits="userSpaceOnUse" x1="31.03" x2="31.03" y1="77.004" y2="68.911"><stop offset="0" stop-color="#e0e0e0"/><stop offset="1" stop-color="#9e9e9e"/></linearGradient><path d="m38.9 42.9h-29.8c-.98 0-1.77-.79-1.77-1.77v-8.46c.01-.98.8-1.77 1.77-1.77h29.8c.98 0 1.77.79 1.77 1.77v8.46c0 .98-.79 1.77-1.77 1.77z" fill="url(#a)"/><path d="m4.01 50.8h119.99v68h-119.99z" fill="url(#c)"/><path d="m120 123.9h-112c-2.21 0-4-1.79-4-4v-4h119.99v4c0 2.21-1.79 4-3.99 4z" fill="#bdbdbd"/><path d="m120 27.9h-72c-2.21 0-4 1.79-4 4v5c0 1.1-.9 2-2 2h-34c-2.21 0-4 1.79-4 4v12h119.99v-23c0-2.21-1.79-4-3.99-4z" fill="#bdbdbd"/><path d="m70.37 38.9c.9 0 1.63.73 1.63 1.63v4.73c0 .9-.73 1.63-1.63 1.63h-16.74c-.9 0-1.63-.73-1.63-1.63v-4.73c0-.9.73-1.63 1.63-1.63zm0-2h-16.74c-2 0-3.63 1.63-3.63 3.63v4.73c0 2 1.63 3.63 3.63 3.63h16.73c2 0 3.63-1.63 3.63-3.63v-4.73c.01-2-1.62-3.63-3.62-3.63z" fill="#424242" opacity=".2"/><path d="m113.2 36.1c.99 0 1.8.81 1.8 1.8v7.2c0 .99-.81 1.8-1.8 1.8h-14.4c-.99 0-1.8-.81-1.8-1.8v-7.2c0-.99.81-1.8 1.8-1.8zm0-2h-14.4c-2.1 0-3.8 1.7-3.8 3.8v7.2c0 2.1 1.7 3.8 3.8 3.8h14.4c2.1 0 3.8-1.7 3.8-3.8v-7.2c0-2.1-1.71-3.8-3.8-3.8z" fill="#424242" opacity=".2"/><path d="m113.2 46.9h-14.4c-.99 0-1.8-.81-1.8-1.8v-7.2c0-.99.81-1.8 1.8-1.8h14.4c.99 0 1.8.81 1.8 1.8v7.2c0 .99-.81 1.8-1.8 1.8z" fill="#424242"/><path d="m70.37 46.9h-16.74c-.9 0-1.63-.73-1.63-1.63v-4.73c0-.9.73-1.63 1.63-1.63h16.73c.9 0 1.63.73 1.63 1.63v4.73c.01.9-.72 1.63-1.62 1.63z" fill="#e0e0e0"/><path d="m82 46.9c-1.1 0-2-.9-2-2v-4c0-1.1.9-2 2-2s2 .9 2 2v4c0 1.1-.9 2-2 2z" fill="#e0e0e0"/><path d="m82 41.9c-.55 0-1-.45-1-1s.45-1 1-1 1 .45 1 1-.45 1-1 1z" fill="#757575"/><path d="m82 45.9c-.55 0-1-.45-1-1s.45-1 1-1 1 .45 1 1-.45 1-1 1z" fill="#fafafa"/><g fill="#f5f5f5"><path d="m53.5 38.9h1v8h-1z"/><path d="m55.54 38.9h1v8h-1z"/><path d="m57.58 38.9h1v8h-1z"/><path d="m59.62 38.9h1v8h-1z"/><path d="m61.66 38.9h1v8h-1z"/><path d="m63.7 38.9h1v8h-1z"/><path d="m65.73 38.9h1v8h-1z"/><path d="m67.77 38.9h1v8h-1z"/><path d="m69.81 38.9h1v8h-1z"/></g><path d="m44.5 58.9c1.66 0 3 1.34 3 3s-1.34 3-3 3-3-1.34-3-3 1.34-3 3-3m0-2c-2.76 0-5 2.24-5 5s2.24 5 5 5 5-2.24 5-5-2.24-5-5-5z" fill="#424242" opacity=".2"/><path d="m82 38.9c1.1 0 2 .9 2 2v4c0 1.1-.9 2-2 2s-2-.9-2-2v-4c0-1.1.9-2 2-2m0-2c-2.21 0-4 1.79-4 4v4c0 2.21 1.79 4 4 4s4-1.79 4-4v-4c0-2.21-1.8-4-4-4z" fill="#424242" opacity=".2"/><circle cx="44.5" cy="61.9" fill="#e0e0e0" r="3"/><path d="m31 50.9c1.1 0 2 .9 2 2v4.42c1.76.77 3 2.53 3 4.58 0 2.76-2.24 5-5 5s-5-2.24-5-5c0-2.05 1.24-3.81 3-4.58v-4.42c0-1.1.9-2 2-2m0-2c-2.21 0-4 1.79-4 4v3.26c-1.86 1.29-3 3.43-3 5.74 0 3.86 3.14 7 7 7s7-3.14 7-7c0-2.31-1.14-4.45-3-5.74v-3.26c0-2.21-1.79-4-4-4z" fill="#424242" opacity=".2"/><ellipse cx="78" cy="84.9" fill="#8d8c8c" rx="32" ry="32"/><ellipse cx="78" cy="84.9" fill="url(#d)" rx="26" ry="26"/><ellipse cx="78" cy="84.9" fill="url(#e)" rx="23" ry="23"/><circle cx="78" cy="84.9" fill="url(#f)" r="10"/><path d="m78 74.9c5.52 0 10 4.48 10 10s-4.48 10-10 10-10-4.48-10-10 4.48-10 10-10m0-3c-7.17 0-13 5.83-13 13s5.83 13 13 13 13-5.83 13-13-5.83-13-13-13z" fill="#eee" opacity=".2"/><path d="m31.03 62.9c-1.1 0-2-.9-2-2v-8c0-1.1.9-2 2-2s2 .9 2 2v8c0 1.1-.9 2-2 2z" fill="url(#g)"/><circle cx="31.03" cy="61.9" fill="#e0e0e0" r="5"/><path d="m31.03 65.4c-1.93 0-3.5-1.57-3.5-3.5s1.57-3.5 3.5-3.5 3.5 1.57 3.5 3.5-1.57 3.5-3.5 3.5z" fill="#757575"/><path d="m31.03 58.9c1.66 0 3 1.34 3 3s-1.34 3-3 3-3-1.34-3-3 1.34-3 3-3m0-1c-2.21 0-4 1.79-4 4s1.79 4 4 4 4-1.79 4-4-1.79-4-4-4z" fill="#9e9e9e"/><path d="m31.07 56.13h-.07c-.53 0-.96-.43-.96-.96v-2.07c0-.53.43-.96.96-.96h.07c.53 0 .96.43.96.96v2.07c0 .53-.43.96-.96.96z" fill="#f44336"/><path d="m78 76.9c4.41 0 8 3.59 8 8s-3.59 8-8 8-8-3.59-8-8 3.59-8 8-8m0-2c-5.52 0-10 4.48-10 10s4.48 10 10 10 10-4.48 10-10-4.48-10-10-10z" fill="#424242" opacity=".2"/></svg>