<svg width="7" height="14" viewBox="0 0 7 14" fill="none" xmlns="http://www.w3.org/2000/svg">
<path opacity= "0.5" fill-rule="evenodd" clip-rule="evenodd" d="M4.25006 1C4.25006 0.585786 3.91428 0.25 3.50006 0.25C3.08585 0.25 2.75006 0.585786 2.75006 1V2.29486C2.31701 2.36301 1.87074 2.51932 1.49522 2.83119C1.02856 3.21874 0.751713 3.77963 0.68952 4.47777C0.585844 5.64158 0.898412 6.48323 1.55871 7.05006C2.13773 7.54711 2.906 7.74807 3.46611 7.89457L3.49287 7.90157C4.14891 8.07327 4.53974 8.18446 4.77746 8.3841C4.86829 8.46037 4.92958 8.54701 4.96596 8.67604C5.00595 8.81789 5.02635 9.05114 4.9573 9.42716C4.90306 9.72254 4.76554 9.89302 4.5783 10.0112C4.36709 10.1445 4.0556 10.2305 3.66237 10.2471C3.27527 10.2634 2.85923 10.21 2.48658 10.1135C2.10437 10.0146 1.82281 9.88482 1.68126 9.78535C1.34234 9.54721 0.87455 9.6289 0.636408 9.96781C0.398267 10.3067 0.479958 10.7745 0.81887 11.0127C1.15911 11.2517 1.62743 11.4406 2.11069 11.5657C2.31345 11.6182 2.52844 11.6619 2.75006 11.6936V13C2.75006 13.4142 3.08585 13.75 3.50006 13.75C3.91428 13.75 4.25006 13.4142 4.25006 13V11.6919C4.63944 11.6266 5.03026 11.4997 5.37888 11.2797C5.90947 10.9448 6.30037 10.4183 6.43263 9.69808C6.52921 9.17215 6.5298 8.69507 6.40968 8.26902C6.28596 7.83016 6.04685 7.49135 5.74213 7.23544C5.2242 6.80047 4.507 6.61478 3.97846 6.47794L3.97845 6.47794L3.87266 6.45045C3.24364 6.28582 2.81657 6.15297 2.53575 5.91191C2.32695 5.73266 2.11203 5.41435 2.1836 4.61087C2.21566 4.251 2.33763 4.08141 2.45355 3.98514C2.588 3.87348 2.80547 3.78696 3.12785 3.75921C3.78888 3.7023 4.61293 3.91721 5.1394 4.15331C5.51735 4.3228 5.96114 4.15381 6.13063 3.77586C6.30012 3.39791 6.13114 2.95412 5.75319 2.78463C5.36115 2.60882 4.8263 2.43127 4.25006 2.33148V1Z" fill="#253D35" fill-opacity="0.5"/>
</svg>
